<?xml version="1.0" encoding="UTF-8" standalone="no"?>
<!-- Created with Inkscape (http://www.inkscape.org/) -->

<svg
   xmlns:dc="http://purl.org/dc/elements/1.1/"
   xmlns:cc="http://creativecommons.org/ns#"
   xmlns:rdf="http://www.w3.org/1999/02/22-rdf-syntax-ns#"
   xmlns:svg="http://www.w3.org/2000/svg"
   xmlns="http://www.w3.org/2000/svg"
   xmlns:sodipodi="http://sodipodi.sourceforge.net/DTD/sodipodi-0.dtd"
   xmlns:inkscape="http://www.inkscape.org/namespaces/inkscape"
   width="130mm"
   height="130mm"
   viewBox="0 0 460.62992 460.62992"
   id="svg2"
   version="1.1"
   inkscape:version="0.91 r13725"
   sodipodi:docname="logo_soccoin.svg">
  <defs
     id="defs4" />
  <sodipodi:namedview
     id="base"
     pagecolor="#ffffff"
     bordercolor="#666666"
     borderopacity="1.0"
     inkscape:pageopacity="0.0"
     inkscape:pageshadow="2"
     inkscape:zoom="0.7"
     inkscape:cx="426.51265"
     inkscape:cy="416.51398"
     inkscape:document-units="px"
     inkscape:current-layer="layer1"
     showgrid="false"
     inkscape:window-width="1920"
     inkscape:window-height="1009"
     inkscape:window-x="0"
     inkscape:window-y="0"
     inkscape:window-maximized="1" />
  <metadata
     id="metadata7">
    <rdf:RDF>
      <cc:Work
         rdf:about="">
        <dc:format>image/svg+xml</dc:format>
        <dc:type
           rdf:resource="http://purl.org/dc/dcmitype/StillImage" />
        <dc:title></dc:title>
      </cc:Work>
    </rdf:RDF>
  </metadata>
  <g
     inkscape:label="Layer 1"
     inkscape:groupmode="layer"
     id="layer1"
     transform="translate(0,-591.73228)">
    <path
       style="fill:#999999;fill-opacity:1"
       d="m 191.79316,599.69759 -8.71604,0.87158 -4.53237,18.28052 -13.05086,-13.39954 -8.35583,3.47485 17.4089,25.77631 -8.35577,33.93454 a 163.09844,165.75477 0 0 0 -30.72704,17.88539 l -0.0928,0.0595 -33.94619,-9.75038 -13.585432,-27.85657 -7.135563,5.21801 5.218009,18.1178 -18.094538,-5.22967 -5.403942,7.30991 28.030843,13.58543 9.576083,33.60918 -1.743219,3.07969 a 163.09844,165.75477 0 0 0 -13.678435,23.73095 l -2.33592,3.9978 -34.132145,8.5301 -25.764657,-17.23461 -3.486443,8.19315 13.58543,13.05087 -18.280472,4.53236 -1.045981,8.86713 30.994379,-2.08024 25.241763,24.19583 0,0.89485 a 163.09844,165.75477 0 0 0 -1.185395,19.04751 163.09844,165.75477 0 0 0 0.918103,16.00269 l -22.185326,21.33695 -33.957804,-3.99774 0.52302,8.70445 21.766916,6.61254 -16.374574,15.66573 3.486444,8.35577 28.553801,-19.3264 29.332501,8.92526 a 163.09844,165.75477 0 0 0 15.688932,29.97167 l 0.941319,1.84775 -12.876524,37.60699 -26.299292,12.88813 5.229675,6.96122 15.665674,-4.5207 -4.520766,13.39949 6.961226,5.92691 13.050862,-23.68442 36.398338,-10.44766 15.49138,9.05306 4.5091,2.56833 a 163.09844,165.75477 0 0 0 4.43936,2.51025 l 6.3686,3.62586 9.05307,36.22403 -16.36297,24.1958 8.01881,3.4864 12.00487,-12.5395 4.18375,16.7232 9.05307,1.2087 -2.09185,-29.4255 24.8466,-25.69501 a 163.09844,165.75477 0 0 0 21.27883,1.59216 163.09844,165.75477 0 0 0 16.44437,-1.02266 l 23.09177,24.07961 -2.0919,30.82 8.70446,-0.8716 4.53236,-18.2805 13.05086,13.4111 8.36744,-3.4864 -17.4089,-25.7647 7.97228,-31.76138 a 163.09844,165.75477 0 0 0 33.59758,-19.3148 l 31.72649,9.11121 13.57383,27.68222 6.97282,-5.22966 -5.2296,-18.09454 18.10619,5.218 5.40395,-7.3099 -28.03091,-13.58543 -8.94846,-31.3662 a 163.09844,165.75477 0 0 0 19.54721,-33.65567 l 37.28157,-9.32039 23.32419,15.66567 3.66073,-8.00716 -11.84221,-11.49359 13.2252,-3.30049 1.22021,-8.89039 -25.2417,1.74322 -27.85656,-26.79903 0,-17.94346 0,-17.58323 25.42764,-24.54445 30.80844,2.08024 -1.04592,-8.69285 -18.28054,-4.53236 13.58544,-13.06247 -3.66073,-8.35583 -25.76471,17.40896 -33.94621,-8.35583 -8.89039,-15.50299 -8.86711,-15.30539 9.73876,-33.95786 27.68221,-13.58543 -5.21799,-7.13557 -18.1178,5.22967 5.2296,-18.1178 -7.13556,-5.39235 -13.57382,27.85657 -33.78347,9.75037 -5.57829,-3.19591 a 163.09844,165.75477 0 0 0 -21.08128,-12.14441 l -4.16047,-2.41726 -8.53011,-34.29482 17.24622,-25.60198 -8.01881,-3.47485 -13.06247,13.57384 -4.52077,-18.28048 -9.05306,-1.04592 2.25452,30.99433 -24.26551,25.12555 a 163.09844,165.75477 0 0 0 -18.57108,-1.1854 163.09844,165.75477 0 0 0 -17.22295,1.11566 l -24.38171,-25.23016 2.10344,-30.81998 z m 39.51289,6.27552 c -11.50031,0 -20.55558,9.23324 -20.54672,20.70939 0,11.51905 9.05426,20.87862 20.54672,20.89533 11.50918,0 21.06961,-9.37628 21.06961,-20.89533 0,-11.47615 -9.56043,-20.70939 -21.06961,-20.70939 z m 94.54031,25.4161 c -6.62106,0.46233 -12.78157,4.0589 -16.36298,10.27332 -5.75899,9.97517 -2.63438,22.79518 7.3099,28.55387 9.96738,5.7559 22.96803,2.31777 28.72814,-7.65853 5.738,-9.93726 2.13576,-22.62422 -7.83286,-28.37953 -3.73486,-2.15615 -7.86958,-3.0654 -11.8422,-2.78913 z m -189.71984,0.35998 c -1.00415,-0.0179 -2.00128,0.0357 -3.00995,0.16304 -2.68996,0.34571 -5.35259,1.35056 -7.84441,2.78914 -9.95976,5.75036 -13.40425,18.27124 -7.65853,28.20519 5.75899,9.97688 18.41869,13.56364 28.37952,7.83286 9.96743,-5.75536 13.42912,-18.57811 7.67013,-28.55386 -3.76557,-6.52187 -10.50771,-10.29392 -17.53676,-10.43607 z m 51.81998,22.97557 0.012,0 3.46317,5.0902 a 163.09844,165.75477 0 0 0 -3.86993,0.89485 l 0.39509,-5.98505 z m 87.75336,0 0.4534,6.44993 a 163.09844,165.75477 0 0 0 -4.05588,-1.05758 l 3.6026,-5.39235 z m -163.65292,43.87092 5.75263,2.77754 a 163.09844,165.75477 0 0 0 -2.85887,3.10289 l -2.89376,-5.88043 z m 239.73841,0.17434 -3.18424,6.48474 a 163.09844,165.75477 0 0 0 -3.39344,-3.27724 l 6.57768,-3.2075 z m 47.36895,2.61481 c -3.9709,-0.27312 -8.12852,0.63463 -11.85387,2.78913 -9.97629,5.75977 -13.37926,18.41829 -7.64687,28.37952 5.7546,9.96738 18.56591,13.40562 28.5422,7.64692 9.93751,-5.73805 13.25038,-18.40048 7.49586,-28.36791 -3.59385,-6.22501 -9.91912,-9.99081 -16.53732,-10.44766 z m -334.999275,0.68563 c -6.654137,0.51826 -12.940675,4.39193 -16.537308,10.62201 -5.750192,9.96011 -2.446119,22.48605 7.495845,28.21684 9.976299,5.75929 22.794871,2.44873 28.553865,-7.49585 5.755654,-9.96791 2.317773,-22.79409 -7.658527,-28.55385 -3.726596,-2.15171 -7.861372,-3.10112 -11.853875,-2.78915 z m 323.621895,71.91341 7.89094,0.52302 -6.56607,4.46263 a 163.09844,165.75477 0 0 0 -1.32487,-4.98559 z m -312.953415,0.0477 a 163.09844,165.75477 0 0 0 -1.057587,4.21861 l -5.601495,-3.74212 6.659082,-0.47661 z m 348.875255,23.10344 c -11.51911,0 -20.87874,9.22853 -20.89534,20.721 0,11.50935 9.37623,21.06961 20.89534,21.06961 11.47591,0 20.721,-9.56026 20.721,-21.06961 0,-11.50026 -9.24509,-20.72993 -20.721,-20.721 z M 40.133526,798.0182 c -11.474781,0 -20.720989,9.37408 -20.720989,20.88373 0,11.50001 9.246208,20.73087 20.720989,20.72099 11.520249,0 20.87874,-9.22889 20.895334,-20.72099 0,-11.50965 -9.375085,-20.88373 -20.895334,-20.88373 z m 349.723634,60.44308 9.28554,6.24072 -11.05197,0.80184 a 163.09844,165.75477 0 0 0 1.76643,-7.04256 z M 72.871076,858.9843 a 163.09844,165.75477 0 0 0 0.418297,1.85942 l -2.696202,-0.32546 2.277789,-1.53402 z m -11.493589,32.70267 c -2.714118,0.19696 -5.269171,0.94418 -7.832806,2.25459 -10.216804,5.22675 -14.119159,17.79624 -8.87878,28.0425 5.23698,10.23881 17.469813,14.27559 27.682211,9.04146 10.255656,-5.243 14.446721,-17.7784 9.227413,-28.01924 -3.929316,-7.68458 -12.055823,-11.89575 -20.198038,-11.31931 z m 332.198533,4.34643 c -6.67835,0.42366 -13.11222,4.05861 -16.71159,10.27332 -5.75566,9.96761 -2.31777,22.7935 7.65852,28.55387 9.9375,5.73769 22.79933,2.31009 28.55386,-7.65853 5.75019,-9.95975 2.28457,-22.64921 -7.65853,-28.37953 -3.74069,-2.15955 -7.8353,-3.04362 -11.84226,-2.78913 z m -282.44718,36.16587 a 163.09844,165.75477 0 0 0 4.17208,4.6137 l -9.18094,4.4975 5.00886,-9.1112 z m 235.58958,5.14827 1.94077,3.96293 -3.86994,-1.88269 a 163.09844,165.75477 0 0 0 1.92917,-2.08024 z m -21.33695,28.90248 c -1.00154,-0.0298 -2.00521,-0.003 -3.00989,0.11603 -2.67919,0.32011 -5.3426,1.193 -7.83287,2.62646 -9.96737,5.75393 -13.42913,18.74101 -7.67013,28.71653 5.73799,9.93816 18.58637,13.07546 28.5538,7.32156 9.95969,-5.75053 13.22884,-18.27107 7.48425,-28.20522 -3.78016,-6.54651 -10.51438,-10.3611 -17.52516,-10.57555 z m -192.03243,0.11603 c -1.00683,-0.0631 -2.01426,-0.0625 -3.02161,0.0119 -6.7159,0.47721 -13.12317,4.2138 -16.7232,10.44766 -5.73799,9.93911 -2.13462,22.62506 7.83281,28.37949 9.95969,5.75 22.48658,2.285 28.21684,-7.65849 5.76012,-9.97499 2.44956,-22.79255 -7.49579,-28.55386 -2.80307,-1.6185 -5.7885,-2.43808 -8.80905,-2.62646 z m 49.48401,12.28388 a 163.09844,165.75477 0 0 0 5.22966,1.38295 l -4.63697,6.89148 -0.59264,-8.27443 z m 90.01959,1.92911 -0.29037,4.42782 -2.54507,-3.77699 a 163.09844,165.75477 0 0 0 2.83562,-0.65083 z m -43.63849,11.56332 c -11.50912,0 -20.88367,9.54994 -20.88367,21.06964 0,11.4754 9.37455,20.5467 20.88367,20.5467 11.50037,0 20.72991,-9.0713 20.72105,-20.5467 0,-11.5197 -9.22847,-21.05244 -20.72105,-21.06964 z"
       id="path3394"
       inkscape:connector-curvature="0" />
    <ellipse
       style="fill:#ffffff"
       id="path3520-6"
       cx="231.83057"
       cy="819.32935"
       rx="154.73441"
       ry="157.25452" />
    <path
       style="fill:#666666"
       d="m 199.88118,919.48959 c -4.02821,-1.14463 -6.95629,-5.46273 -6.93797,-10.23138 0.0179,-3.68155 1.00868,-6.09268 3.37036,-8.17155 2.35954,-2.07691 5.26477,-5.48302 8.96376,-2.65324 15.71356,12.02119 35.65026,5.25328 46.54443,2.29028 20.35203,-3.99477 18.90304,6.11767 31.21715,-18.82901 6.41352,-13.94328 8.15579,-28.10094 8.5253,-29.51375 0.10645,-0.40878 -0.0612,-0.94917 -0.37368,-1.2011 -0.31239,-0.25169 -3.57278,-1.0796 -7.24481,-1.83932 -16.01613,-3.31347 -26.56328,-6.81116 -38.76322,-12.85475 -8.35446,-4.13858 -10.53097,-6.64758 -10.53097,-12.13977 0,-4.73431 2.79854,-8.69987 7.16257,-10.14933 3.15116,-1.04664 5.57865,-0.60418 11.68121,2.12921 12.40194,5.55503 27.45248,10.24888 43.05019,13.42626 7.178,1.4622 10.00124,1.67629 13.70723,1.03956 13.05397,-2.2431 22.92322,2.29308 26.51712,12.18791 1.02087,14.63784 -40.57326,50.24294 -31.91302,59.76125 1.02313,8.08046 -6.86008,12.3672 -10.61065,14.40852 -4.19618,2.28385 -4.58323,2.3035 -50.35945,2.55518 -28.77502,0.15828 -42.93548,0.0893 -44.00514,-0.21479 z M 328.9577,824.79548 c -6.67342,-2.00616 -11.86804,-7.18883 -13.83433,-13.80244 -0.94893,-3.19191 -0.93007,-8.66434 0.0416,-11.6474 4.3009,-13.22295 19.45343,-18.62761 30.90804,-11.02442 3.953,2.62384 6.88043,6.63635 8.33274,11.42153 0.81184,2.67473 0.7737,8.39462 -0.0749,11.27981 -3.12343,10.61545 -14.79612,16.95203 -25.37142,13.77292 z"
       id="path3503"
       inkscape:connector-curvature="0"
       sodipodi:nodetypes="cccsccccsssssscccsscccccscccc" />
    <path
       style="fill:#666666"
       d="m 151.77767,901.24041 c 2.73898,3.16769 7.88981,3.9978 12.2044,1.96701 3.32954,-1.57108 5.09643,-3.48775 5.98319,-6.50657 0.88586,-3.01597 2.74607,-7.08802 -1.38127,-9.24556 -17.53343,-9.16534 -19.82002,-30.09494 -21.73592,-41.22111 -4.97559,-20.13473 -13.52955,-14.5499 3.88101,-36.24886 9.92934,-11.7028 22.02615,-19.26208 23.15068,-20.19375 0.32547,-0.26954 0.88682,-0.34392 1.24651,-0.16899 0.35998,0.17673 2.48758,2.78242 4.72728,5.78993 9.76846,13.11763 17.39378,21.20035 28.02495,29.70576 7.28009,5.82451 10.47367,6.73756 15.45182,4.41765 4.2912,-1.99992 6.70364,-6.21133 6.17408,-10.77922 -0.382,-3.2983 -1.8085,-5.31183 -6.86395,-9.6886 -10.27362,-8.89491 -20.88545,-20.55426 -30.35378,-33.35017 -4.35725,-5.88865 -5.74381,-8.3572 -6.73209,-11.98532 -3.48067,-12.77977 -11.76098,-19.8093 -22.24786,-18.88738 -13.69908,5.25775 -28.40313,57.99828 -40.68869,54.16898 -7.75635,2.48575 -8.31209,11.44183 -8.57819,15.7037 -0.29751,4.76817 -0.15173,5.12725 18.95534,46.7258 12.0109,26.14892 18.05473,38.95494 18.78207,39.79605 z M 183.0889,744.24569 c 4.63721,5.20152 11.529,7.72088 18.3542,6.70959 3.29406,-0.48792 8.24634,-2.81664 10.53983,-4.9575 10.16878,-9.48368 8.66732,-25.50101 -3.06267,-32.6721 -4.04797,-2.47473 -8.92151,-3.43336 -13.87229,-2.72851 -2.76736,0.3939 -7.93627,2.84312 -10.19246,4.83244 -8.30275,7.31495 -9.11584,20.57176 -1.76733,28.81453 z"
       id="path3503-3"
       inkscape:connector-curvature="0"
       sodipodi:nodetypes="cccsccccsssssscccsscccccscccc" />
  </g>
</svg>
